<?xml version="1.0" encoding="UTF-8" standalone="no"?>
<!-- Created with Inkscape (http://www.inkscape.org/) -->

<svg
   width="256.0px"
   height="256.0px"
   viewBox="0 0 256.0 256.0"
   version="1.1"
   id="SVGRoot"
   sodipodi:docname="sv.svg"
   inkscape:version="1.2 (dc2aedaf03, 2022-05-15)"
   inkscape:export-filename="sv.png"
   inkscape:export-xdpi="192"
   inkscape:export-ydpi="192"
   xmlns:inkscape="http://www.inkscape.org/namespaces/inkscape"
   xmlns:sodipodi="http://sodipodi.sourceforge.net/DTD/sodipodi-0.dtd"
   xmlns="http://www.w3.org/2000/svg"
   xmlns:svg="http://www.w3.org/2000/svg">
  <sodipodi:namedview
     id="namedview14"
     pagecolor="#ffffff"
     bordercolor="#666666"
     borderopacity="1.0"
     inkscape:showpageshadow="2"
     inkscape:pageopacity="0.0"
     inkscape:pagecheckerboard="0"
     inkscape:deskcolor="#d1d1d1"
     inkscape:document-units="px"
     showgrid="true"
     inkscape:zoom="2.5977307"
     inkscape:cx="126.26405"
     inkscape:cy="153.40313"
     inkscape:window-width="1920"
     inkscape:window-height="1004"
     inkscape:window-x="0"
     inkscape:window-y="0"
     inkscape:window-maximized="1"
     inkscape:current-layer="layer1"
     showguides="false">
    <inkscape:grid
       type="xygrid"
       id="grid20" />
  </sodipodi:namedview>
  <defs
     id="defs9" />
  <g
     inkscape:label="Слой 1"
     inkscape:groupmode="layer"
     id="layer1">
    <path
       style="fill:none;stroke:#c4d560;stroke-width:14;stroke-linecap:round;stroke-linejoin:round;stroke-dasharray:none;stroke-opacity:1"
       d="m 158.10332,45.689697 c 3.03571,-1.297156 3.93118,-2.231298 7.09002,-1.888667 0.46622,0.05057 0.99448,0.237114 1.26162,0.622538 0.84535,1.219664 0.0303,3.388214 -0.39848,4.396867 -1.12325,2.642427 -2.74007,5.286472 -4.09913,7.840377 -0.32999,0.620098 -2.40744,3.904681 -2.26009,5.419393 0.24379,2.506115 1.84399,2.800284 3.7232,3.708165 2.32687,1.124154 4.87624,2.22322 6.04795,4.753247 1.39985,3.022665 -0.0224,5.870921 -0.42104,8.838845 -0.021,0.156235 -0.0881,1.964539 0,2.464591 0.12836,0.728828 0.46127,1.041434 0.66464,1.798445 0.30281,1.127186 -0.12106,2.4365 0.13383,3.553281 0.12314,0.539521 0.68919,0.47473 1.08568,0.556375 0.56161,0.115644 2.45388,0.301774 2.92323,1.04358 1.28159,2.02555 0.32471,3.378 -0.53081,5.48556 -0.32486,0.80029 -0.80399,1.52946 -1.17441,2.30971 -0.28,0.5898 -0.67918,1.15275 -0.77591,1.79844 -0.0875,0.58404 -0.0334,1.23327 0.2436,1.754836 0.19336,0.36411 0.65079,0.53629 1.04207,0.66614 1.71831,0.57025 2.45007,0.37936 4.09914,0.66615 0.3097,0.0539 2.45576,0.1617 2.61345,1.15485 0.19557,1.23168 -0.45593,2.34406 -1.04057,3.33073 -0.43106,0.7275 -0.91057,1.42522 -1.37439,2.13227 -0.74228,1.13151 -1.02864,1.27898 -1.35185,2.73226 -0.0917,0.41222 -0.062,0.84424 -0.0436,1.26613 0.16534,3.78069 0.10694,0.90188 0.50976,3.8856 0.19864,1.4714 0.29349,2.9825 0.13232,4.46453 -0.15731,1.44661 -0.82431,2.88458 -1.28417,4.21943 -0.19516,0.5665 -0.36573,1.14119 -0.55487,1.70973 -0.13026,0.39155 -0.90515,2.49117 -1.01802,3.26456 -0.07,0.47984 -0.13958,2.02864 -0.0451,2.59843 0.0873,0.52626 0.42458,0.77687 0.64209,1.24507 0.1904,0.40986 0.37295,0.82778 0.48871,1.26463 0.51587,1.94677 0.20319,5.98951 -0.0226,7.75166 -0.33852,2.64243 -1.5811,7.15154 -2.19392,9.39371 -0.13733,0.50247 -1.32169,4.02546 -1.28418,4.93069 0.007,0.17377 0.34147,0.15515 0.50976,0.11127 0.59319,-0.15464 1.1221,-0.4996 1.70522,-0.6887 1.08795,-0.3528 2.20838,-0.72121 3.36832,-0.51126 2.08196,0.37682 2.29185,2.88873 2.52474,4.53069 0.45719,3.22324 0.55709,6.48855 1.08569,9.70499 0.15783,0.9604 0.33886,1.3011 0.68719,2.15483 0.0225,0.0551 0.0483,0.1985 0.0887,0.15488 0.41147,-0.44362 0.30686,-0.38438 0.64209,-1.10974 0.58068,-1.25648 1.46249,-3.16143 1.99393,-4.44198 1.29872,-3.12938 2.30347,-5.63391 3.30216,-8.90651 1.05292,-3.45031 1.52701,-7.04131 1.63905,-10.63729 0.0461,-1.47937 0.0465,-3.78669 -0.13383,-5.19685 -0.14565,-1.13885 -0.64353,-2.92146 -0.95185,-4.15326 -0.1739,-0.69477 -0.25251,-0.28968 -0.30977,-1.35485 -0.0451,-0.8387 0.28777,-2.37125 0.35338,-3.04202 0.0614,-0.62726 0.0582,-1.25915 0.0887,-1.88867 0.0502,-1.03653 0.13226,-2.07141 0.17744,-3.10818 1e-5,-6e-5 -0.0104,-1.19636 0.0226,-1.26613 0.0714,-0.15123 0.25076,-0.22139 0.37593,-0.33232 0.19211,-0.17026 0.3959,-0.32826 0.57592,-0.51126 0.14267,-0.14503 2.03668,-2.15712 2.19392,-2.48715 0.1415,-0.29698 0.26741,-0.62826 0.24361,-0.95636 -0.0316,-0.43518 -0.74211,-0.89065 -0.99697,-1.08719 -0.26332,-0.20306 -0.5549,-0.372 -0.79697,-0.59998 -0.61128,-0.57572 -0.51586,-1.50881 -0.0451,-2.13227 0.84581,-1.12018 2.52588,-2.63752 3.45704,-3.55328 1.73099,-1.70236 1.86167,-1.80008 3.50066,-4.01944 0.35581,-0.48181 0.72145,-0.9668 0.9744,-1.50973 0.34244,-0.73499 0.79725,-1.50195 0.0887,-2.08866 -0.27246,-0.22562 -0.63306,-0.31874 -0.9308,-0.50976 -0.17685,-0.11346 -0.40843,-0.20519 -0.4872,-0.39999 -0.7734,-1.91249 0.89166,-5.03066 1.63905,-6.61785 0.93303,-1.981416 1.78856,-3.641216 2.81345,-5.553226 0.73199,-1.36555 1.51174,-2.70578 2.21648,-4.0856 0.72137,-1.412378 1.75876,-3.502349 1.6165,-5.174283 -0.23347,-2.743896 -3.57393,-3.919482 -3.52171,-6.685523 0.009,-0.474997 -0.0212,-0.964331 0.10977,-1.421012 0.55196,-1.925029 1.87157,-3.624885 2.99089,-5.241955 1.69475,-2.448368 2.82159,-3.992359 3.78937,-6.861457 0.62726,-1.859589 0.47496,-2.857832 0.55337,-4.930686 0.0756,-1.999799 0.0504,-3.002329 0.44359,-5.041961 0.23357,-1.211599 1.14915,-5.516867 1.92777,-7.084008 0.5443,-1.095529 1.15422,-2.1796 1.94881,-3.109685 1.44708,-1.693813 4.3534,-3.733161 6.44794,-4.751744 0.66368,-0.32275 1.35776,-0.578825 2.03754,-0.86614 0.30216,-0.127713 0.59112,-0.294987 0.90824,-0.378937 0.31632,-0.08374 1.44082,-0.259931 1.8616,-0.08722 1.13019,0.463902 1.07094,0.77427 1.88416,1.575894 0.59583,0.587331 1.18736,1.18319 1.83754,1.709726 1.51845,1.229692 4.04664,2.243898 4.67505,4.287095 0.50109,1.62922 0.19448,2.306412 0.0226,3.841995 -0.28421,2.538592 -0.60245,5.478733 -0.11128,8.016312 0.29189,1.508019 1.26705,2.327016 2.17137,3.509674 0.57355,0.75008 1.34941,1.573961 1.24057,2.643533 -0.0884,0.868481 -0.41025,1.705491 -0.75337,2.508199 -0.3682,0.861412 -1.72468,2.572193 -1.77137,3.820943 -0.0664,1.775352 0.94674,2.606149 2.17136,3.664557 0.9174,0.792883 2.42428,1.581456 2.14881,3.108182 -0.2241,1.242052 -1.41767,2.528876 -2.21647,3.420954 -0.54765,0.611598 -1.15354,1.170751 -1.68266,1.798445 -0.19728,0.234032 -0.44671,0.474227 -0.48871,0.777421 -0.1503,1.084876 1.57982,0.933904 2.14881,1.377405 0.62635,0.488207 1.09279,1.044472 0.97591,1.887164 -0.30263,2.182017 -0.6969,2.188545 -1.52928,4.108152 -0.89783,2.07057 -1.4564,3.27716 -1.77288,5.39684 -0.14937,1.00044 -0.20609,2.01269 -0.28721,3.02097 -0.0517,0.643076 -0.005,1.295856 -0.11127,1.932266 -0.15377,0.92412 -0.3845,1.83679 -0.66465,2.73074 -0.0162,0.0516 -1.46082,3.76997 -1.6616,4.33071 -0.48536,1.35547 -1.05594,3.24198 -1.48417,4.53069 -0.17571,0.52879 -0.39928,1.04192 -0.55337,1.5774 -0.64911,2.25575 -0.33766,1.56886 -0.62103,3.95327 -0.2273,1.91255 -0.56455,3.21241 -1.17441,5.17429 -0.46171,1.48532 -1.22886,3.08219 -1.94881,4.44198 -0.63421,1.19783 -1.10344,1.57311 -1.63905,2.90969 -0.30457,0.76003 -0.50688,1.88247 -0.55487,2.73075 -0.0373,0.65823 0.0215,1.32132 -0.0436,1.97738 -0.16186,1.63091 -0.98664,3.72832 -1.59545,5.04046 -0.72028,1.55242 -1.57675,3.03865 -2.41496,4.5307 -1.47715,2.62937 -2.08848,2.99873 -3.12473,5.86299 -0.29482,0.81492 -0.17137,1.84762 -0.0211,2.66609 0.26512,1.44353 0.22088,-0.41714 0.28721,1.50973 0.0624,1.81263 0.0717,3.75426 -0.13233,5.55172 -0.0588,0.51787 -0.2107,1.02089 -0.31126,1.53229 -0.72094,3.66628 0.31161,-1.25601 -0.97441,4.30965 -0.20269,0.87719 -0.32313,1.48257 -0.2436,2.39843 0.0908,1.04589 1.21614,2.13868 1.01951,3.15329 -0.43375,2.23828 -1.78169,3.46578 -3.23449,5.2194 -3.24748,3.91991 -0.60507,0.47881 -3.70064,4.10815 -0.44953,0.52704 -2.0038,2.13015 -2.19393,3.24201 -0.19913,1.16456 0.31159,1.47963 0.6872,2.57587 0.55683,1.62513 0.54689,2.66221 0.2,4.5322 -0.15021,0.80973 -0.45985,1.58991 -0.81953,2.33076 -0.57491,1.18418 -1.24914,2.32141 -1.97288,3.42096 -6.57267,9.98563 0.56231,-1.41852 -3.49914,4.68558 -0.89918,1.3514 -1.14443,1.5407 -1.30824,2.90969 -0.14562,1.21707 0.018,2.22666 -0.55336,3.35328 -0.67383,1.32854 -1.41762,2.62924 -2.28265,3.842 -0.60491,0.84809 -1.35093,1.5912 -2.1052,2.30971 -2.31192,2.2023 -4.47364,4.01073 -7.04491,5.81938 -1.74462,1.22718 -4.75063,3.36297 -6.93364,4.21943 -1.44084,0.56528 0.6831,-1.7722 0.73081,-1.97739 0.0236,-0.10154 -0.6238,-0.14164 -1.01952,-0.0887 -0.7368,0.0985 -1.46888,0.23599 -2.19392,0.39999 -0.65021,0.14707 -1.27538,0.39523 -1.92777,0.53232 -1.80428,0.37914 -3.28537,0.59543 -5.07203,0.71125 -0.4084,0.0265 -2.3515,0.13253 -2.81496,-0.11127 -0.77379,-0.40706 -0.78737,-2.88314 -0.86313,-3.41945 -0.12107,-0.85706 -0.44166,-2.08096 -0.82103,-2.79842 -0.53242,-1.00689 -2.4837,-1.07014 -3.41043,-1.59995 -0.65335,-0.37353 -1.32448,-0.76055 -1.83904,-1.30974 -1.8031,-1.92444 -1.34252,-5.86403 -0.79848,-8.12909 0.17609,-0.73311 0.50475,-1.4231 0.81953,-2.10821 0.69342,-1.50921 1.56014,-3.11189 2.43752,-4.55325 0.21138,-0.34725 0.4911,-0.65492 0.66465,-1.02253 0.0898,-0.19018 0.29474,-0.51822 0.11127,-0.62104 -0.35462,-0.19872 -0.81408,-0.0295 -1.21951,0 -0.60134,0.0438 -3.20493,0.62315 -3.85403,0.0887 -1.10178,-0.90712 -0.88108,-1.91784 -0.86464,-3.22096 0.0258,-2.0441 0.92416,-4.7425 0.15489,-6.70657 -0.33662,-0.85944 -2.93411,-3.43458 -3.0345,-3.55328 -0.96185,-1.13728 -2.73152,-3.11464 -3.05856,-4.81941 -0.37405,-1.94982 -0.15389,-3.51128 0.33232,-5.35173 0.52646,-1.99281 1.96684,-4.85915 1.21951,-6.99679 -0.61563,-1.76094 -1.02525,-1.72162 -1.70671,-3.1969 -0.57233,-0.82704 -0.6091,-1.86584 -1.01952,-2.75481 -0.21936,-0.47513 -0.5378,-0.90055 -0.75337,-1.37741 -0.8266,-1.82851 -1.04256,-2.51577 -1.28417,-4.50814 -0.15802,-1.30312 -0.61444,-5.51942 -0.15488,-7.084 0.18088,-0.61583 0.57616,-1.14746 0.88569,-1.70973 0.16342,-0.29687 0.55988,-0.52838 0.53231,-0.86614 -0.0273,-0.33415 -0.35703,-0.62156 -0.66464,-0.75487 -0.55732,-0.24152 -1.19394,-0.22677 -1.79544,-0.31127 -1.29714,-0.18222 -2.60288,-0.30027 -3.89913,-0.4887 -1.09388,-0.15902 -5.95187,-0.60688 -4.74122,-2.9533 1.54284,-2.99027 4.91028,-4.85673 7.42234,-6.84041 1.34685,-1.06355 2.64398,-1.98482 2.90217,-3.8871 0.40075,-2.95256 -2.9091,-5.04008 -4.14273,-7.32912 -0.47708,-0.88523 -0.38118,-1.59701 -0.39849,-2.61947 -0.0229,-1.35466 0,-2.7097 0,-4.06455 0,-1.6078 0.0841,-3.22076 -0.37743,-4.79836 -0.57318,-1.95923 -1.28103,-2.81878 -2.52625,-4.24048 -0.13938,-0.15914 -2.19622,-2.14178 -2.41346,-2.93224 -0.74689,-2.71765 1.83544,-4.69402 3.07961,-6.729126 0.16934,-0.27698 0.27783,-0.5873 0.39849,-0.88869 0.6619,-1.65345 0.78113,-1.96676 1.19545,-3.61945 0.22494,-0.89726 0.7829,-3.18508 0.9308,-4.30815 0.24844,-1.886482 0.12367,-2.170217 0.42104,-3.798384 0.16327,-0.893917 0.37351,-1.778711 0.57592,-2.664585 0.19123,-0.836885 0.37542,-1.316796 0.39999,-2.154826 0.0243,-0.82803 -0.72185,-1.402818 -0.9308,-2.175877 -0.0909,-0.336123 -0.0719,-0.696427 -0.0451,-1.043579 0.0472,-0.611632 0.12704,-1.223535 0.26616,-1.821001 0.17121,-0.735274 1.01436,-2.447492 0.66464,-3.332235 -0.2876,-0.727591 -1.19005,-1.25696 -1.63905,-1.732281 -1.05379,-1.115573 -2.40381,-2.613758 -2.68113,-4.219428 -0.092,-0.532896 -0.0845,-1.080531 -0.0662,-1.621007 0.0114,-0.337105 0.0237,-0.689234 0.15488,-0.999971 0.45587,-1.079728 1.51716,-2.23901 2.19242,-3.130737 0.3199,-0.422441 0.6278,-0.853971 0.9308,-1.288685 0.81579,-1.170394 1.09708,-1.616323 1.79544,-2.930743 0.59865,-1.126751 0.12544,-0.315028 0.4872,-1.377405 0.2144,-0.629593 0.77895,-1.296137 1.19546,-1.798444 1.44144,-1.738352 3.41504,-2.855729 5.09609,-4.330703 0.79671,-0.699036 1.0195,-0.958051 1.66161,-1.821001 0.0932,-0.125242 0.16497,-0.26513 0.2436,-0.399988 0.0252,-0.04318 0.023,-0.111375 0.0677,-0.133831 0.22147,-0.111363 0.71739,0.149619 0.90824,0 0.60485,-0.474155 1.10774,-1.065634 1.66161,-1.598451 z"
       id="path261-5" />
    <path
       style="fill:none;stroke:#c4d560;stroke-width:14;stroke-linecap:round;stroke-linejoin:round;stroke-dasharray:none;stroke-opacity:1"
       d="m 99.37051,118.61172 c 0.77541,0.17744 1.53572,0.44392 2.32625,0.53232 2.03189,0.22722 4.13425,-0.73064 5.73818,-1.86611 0.68207,-0.48286 1.61145,-1.35031 1.28568,-1.66462 -0.29225,-0.28196 -1.06634,-0.19999 -1.3744,-0.19999 -1.96063,0 -3.90922,0.17744 -5.87051,0.17744 -0.26285,0 -1.53443,0.0987 -1.79393,-0.11128 -0.36288,-0.29364 -0.5764,-1.67694 -0.59848,-1.75333 -0.30851,-1.0673 -0.79554,-2.09658 -0.86464,-3.22096 -0.0622,-1.01229 0.28153,-2.49582 -0.35488,-3.35329 -0.674139,-0.90832 -1.206979,-1.23154 -2.103693,-1.88867 -0.302758,-0.22186 -0.657983,-0.41699 -0.908245,-0.70975 -0.196914,-0.23036 0.02424,-0.30121 0.198491,-0.42255 0.03028,-0.0211 0.125335,-0.0617 0.08872,-0.0662 -0.146951,-0.0181 -0.298279,-0.006 -0.443596,0.0226 -1.065407,0.20786 -1.70728,0.50256 -2.813453,0.75487 -0.835738,0.19062 -1.6756,0.37142 -2.52474,0.48871 -0.439164,0.0607 -0.889196,0.0971 -1.329285,0.0436 -0.06773,-0.008 -0.0046,-0.1517 0.04361,-0.2 0.212134,-0.21255 0.471811,-0.37166 0.709755,-0.55487 0.559536,-0.43082 1.108748,-0.8757 1.682658,-1.28718 0.678197,-0.48625 1.428437,-0.86661 2.105203,-1.35485 0.131708,-0.095 0.506062,-0.27451 0.354877,-0.33382 -0.271497,-0.10652 -0.57936,0.0732 -0.864637,0.13383 -0.988798,0.21008 -0.995262,0.34875 -1.993928,0.39999 -0.399552,0.0205 -0.999497,0.17062 -0.687198,-0.35639 0.230107,-0.3883 0.503443,-0.74989 0.775918,-1.10974 0.63251,-0.83533 1.823594,-1.84336 1.174402,-3.04352 -0.273759,-0.5061 -1.466321,-1.93627 -1.72777,-2.28715 -1.010524,-1.35619 -1.838988,-2.79615 -2.947284,-4.0856 -0.163694,-0.19045 -0.307209,-0.46153 -0.553368,-0.51126 -0.409408,-0.0827 -0.365663,0.65561 -0.377432,1.17741 -0.0087,0.38485 -0.01737,0.77029 0,1.15485 0.0048,0.10548 -0.03664,0.33386 0.06616,0.30977 0.273967,-0.0642 0.279213,-0.85145 0.288714,-1.24358 0.01505,-0.62135 0.0084,-1.24313 0,-1.86461 -0.02693,-2.001765 -0.02985,-1.28005 -0.354877,-3.598388 -0.04869,-0.347249 -0.09989,-0.694438 -0.132327,-1.043579 -0.03291,-0.354171 0.04116,-0.721059 -0.04511,-1.066135 -0.04423,-0.176916 -0.14804,-0.140427 -0.175935,-0.332322 -0.04261,-0.293151 0,-0.592464 0,-0.888696 v -1.754837 c 0,-0.39247 0.04181,-0.787173 0,-1.17741 -0.0023,-0.02114 -0.04079,0.02429 -0.04511,0.04511 -0.04107,0.197954 -0.06642,0.399047 -0.08872,0.599983 -0.153111,1.379735 -0.197723,1.738305 -0.221046,2.996906 -0.0071,0.384886 0,0.769903 0,1.154854 v 0.156387 c 0,-1.874835 0.0782,-3.751927 -0.133831,-5.619388 -0.398361,-3.508592 -0.165767,0.113474 -0.530811,-3.974322 -0.03371,-0.377447 -0.176215,-1.743812 0.04361,-2.288657 0.120603,-0.298923 0.793293,-1.518315 0.864637,-1.664614 0.300497,-0.616196 0.590241,-1.237857 0.864637,-1.866112 0.292869,-0.670549 1.503783,-2.527459 2.157361,-2.984861 3.588224,-0.130818 3.698284,9.177622 4.665114,11.962769 0.09386,0.252969 1.154618,3.269168 1.772764,3.548048 0.353544,0.159504 0.729567,-0.31903 0.996964,-0.599982 0.992122,-1.042415 1.844761,-3.654142 2.526241,-4.930686 0.11152,-0.208895 0.20786,-0.532517 0.4436,-0.554871 0.62906,-0.05965 1.6789,1.083247 1.99392,1.332292 0.95809,0.757429 1.74167,1.571268 2.9909,1.709726 1.15342,0.127839 1.90179,-0.362771 2.85706,-0.998468 0.16886,-0.112376 1.26545,-1.239414 1.61799,-1.288685 0.16604,-0.0232 0.26598,0.21425 0.35488,0.356381 0.46989,0.751225 0.59674,2.189152 1.81649,2.042047 1.14879,-0.138547 1.7704,-0.573667 2.70218,-1.132299 0.279,-0.167271 1.50056,-1.074798 2.15031,-1.132298 0.53872,-0.04767 0.44085,0.561005 0.50976,0.887192 0.0501,0.237298 0.0308,0.501985 0.15338,0.711258 0.13849,0.23642 0.94392,0.172338 1.01952,0.156387 0.52862,-0.111534 1.053,-0.260197 1.55184,-0.467656 0.44705,-0.185923 2.45186,-1.652115 3.01194,-1.154854 0.45542,0.404341 -0.47125,2.655016 1.19696,2.111218 1.35655,-0.442204 2.81396,-2.545962 3.4781,-3.598394 0.26845,-0.425409 0.47234,-0.890025 0.66464,-1.354848 0.09,-0.217429 0.0183,-0.497073 0.15488,-0.688702 0.10638,-0.149293 0.26137,-0.258095 0.37743,-0.399989 0.0496,-0.06067 1.35412,-1.769051 1.41801,-1.864608 0.75973,-1.136324 1.18988,-2.11911 1.77138,-3.420954 0.12088,-0.270639 0.9455,-2.296227 1.08718,-2.753305 0.076,-0.245348 0.0833,-0.508176 0.15489,-0.754866 0.0205,-0.07076 0,0.147365 0,0.221047 0,0.599982 -0.0118,1.200082 0,1.799948 0.002,0.118477 -0.0789,0.291297 0.0211,0.354877 0.46183,0.293635 2.62429,-1.586058 2.94728,-2.087158 0.47908,-0.743255 -0.41949,-0.788787 -0.84208,-1.154854 -0.58784,-0.509217 -1.09106,-0.932607 -0.9308,-1.777393 0.2547,-1.342626 0.77872,-2.063766 1.39695,-3.219457 0.18403,-0.344003 1.05315,-1.809367 0.99546,-2.377375 -0.23021,-2.266618 -3.57901,-2.927529 -4.71866,-4.730692 -0.23707,-0.375098 -0.16196,-1.433053 -0.10977,-1.732281 0.10638,-0.609903 1.02323,-1.682654 0.0887,-2.109714 -2.59869,-1.187574 -5.57887,-0.478251 -8.19826,-1.509731 -0.607,-0.239029 -1.26669,-0.597695 -0.99697,-1.421012 0.17217,-0.525518 1.72326,-1.175797 1.92777,-1.266129 3.00459,-1.327182 2.15553,-0.736972 5.00737,-2.175878 0.31698,-0.159931 0.61714,-0.35313 0.90825,-0.556375 0.12416,-0.08669 0.39533,-0.172065 0.33232,-0.309765 -0.17109,-0.373871 -3.32861,-0.245106 -3.36833,-0.245106 -1.03238,0 -1.6309,0.04274 -2.68112,-0.154883 -0.26825,-0.05048 -0.51673,-0.176121 -0.77442,-0.266158 -1.29307,-0.451811 -2.5227,-1.063647 -3.85552,-1.39996 -2.28492,-0.576556 -4.73239,-0.644239 -6.86898,-1.754837 -0.3925,-0.204021 -0.79173,-0.421735 -1.10674,-0.732309 -0.19981,-0.197006 -0.22482,-0.935019 -0.17743,-1.154855 0.0981,-0.455289 0.22194,-0.911244 0.42104,-1.332292 0.21046,-0.445094 0.5236,-0.834094 0.79697,-1.243574 0.26693,-0.399834 2.16265,-3.11306 2.28264,-3.309679 0.13319,-0.218254 0.41594,-0.490342 0.28721,-0.711258 -0.12731,-0.218471 -0.50646,-0.143259 -0.75336,-0.08872 -0.44589,0.09849 -0.84447,0.348086 -1.26162,0.533819 -0.59739,0.265976 -2.35402,1.129671 -2.99089,1.309737 -0.63595,0.179801 -1.29168,0.302208 -1.95032,0.356381 -0.42817,0.03522 -0.86711,0.0065 -1.28568,-0.09022 -0.69926,-0.161663 -0.30781,-1.107179 -0.41954,-1.553339 -0.0838,-0.334634 -0.28006,-0.604073 -0.57743,-0.777422 -0.40009,-0.23323 -0.95927,-0.370428 -1.41649,-0.333825 -0.47252,0.03783 -0.95724,0.0891 -1.39696,0.266158 -0.88282,0.355481 -1.88376,1.544208 -2.52624,2.243545 -0.038,0.04133 -0.16796,0.227344 -0.19849,0.04361 -0.074,-0.445011 0,-0.90223 0,-1.353345 0,-0.984934 0.0386,-1.970624 0,-2.954803 -0.008,-0.193586 0.12341,-0.537481 -0.0662,-0.577427 -0.197,-0.04151 -0.26961,0.306336 -0.35488,0.488708 -0.24912,0.532814 -0.4527,1.086708 -0.64209,1.643562 -0.35725,1.050464 -0.66759,2.116312 -0.99696,3.175849 -0.16535,0.531908 -0.31814,1.06771 -0.487199,1.59845 -0.11167,0.350543 -0.15275,0.737687 -0.35488,1.045083 -0.12065,0.183485 -0.613155,-0.106385 -0.885689,-0.4451 -0.676536,-0.840819 -1.177402,-1.811997 -1.839045,-2.664585 -0.427297,-0.550611 -1.506273,-2.434673 -2.614963,-1.666118 -0.664255,0.460469 -1.35615,1.441259 -1.927764,2.020995 -1.040614,1.055397 -2.700611,2.387327 -4.254014,2.420983 -1.339834,0.02903 -2.04404,-0.280632 -3.211938,-0.754865 -0.681355,-0.276669 -2.019562,-1.003697 -2.813453,-0.888697 -0.300419,0.04352 -0.522973,0.354072 -0.664643,0.622539 -0.410695,0.778273 -0.898036,2.505456 -1.130795,3.464562 -0.07569,0.311904 -0.257936,1.565269 -0.530811,1.887164 -0.09672,0.114096 -0.294163,0.06115 -0.443597,0.06767 -0.369062,0.01609 -0.738826,0 -1.108239,0 h -2.702178 c -0.46515,0 -0.931276,-0.03012 -1.395449,0 -1.766271,0.114626 -2.472804,0.361439 -4.32168,0.975912 -0.484308,0.16096 -0.982146,0.31193 -1.418005,0.577427 -0.366363,0.223166 -0.723858,0.502764 -0.951852,0.866141 -0.134258,0.21398 -0.03077,1.419125 -0.02256,1.599954 0.154701,3.406054 -0.0041,-0.278706 0.04511,1.643562 0.01183,0.462089 0.181703,0.952703 0.398485,1.354849 0.105157,0.195072 0.191366,0.253062 0.132327,0.266157 -0.137017,0.03039 -0.280837,-0.0063 -0.42104,0 -0.746156,0.03378 -1.183479,-0.01102 -1.839045,0.354877 -1.743826,0.973299 -1.882154,2.81217 -2.392413,4.48709 -0.553403,1.816536 -1.450739,3.843886 -2.658571,5.306615 -0.882215,1.068395 -2.015547,2.115244 -3.211938,2.820972 -0.233618,0.137807 -1.072802,0.373105 -1.219514,0.577427 -0.266205,0.370737 0.331494,0.617103 0.488708,0.754865 0.896574,0.785642 0.627684,1.548626 0.04361,2.620978 -0.305637,0.561143 -0.728885,1.053332 -1.151847,1.532287 -1.751084,1.982899 -2.356373,2.453001 -4.120182,4.064545 -0.694585,0.634623 -1.667132,1.448354 -2.239034,2.243545 -0.09333,0.129776 -0.129313,0.492306 0.111275,0.554871 0.792707,0.206144 2.140388,-0.307771 2.369857,0.909749 0.05689,0.301845 -0.117097,0.608797 -0.243602,0.888696 -0.480812,1.063817 -1.622905,1.866399 -1.905209,2.930743 -0.151177,0.569971 0.06008,1.002134 0.04511,1.554843 -0.01105,0.407981 -0.0043,0.819346 -0.06767,1.222521 -0.06305,0.400898 -0.215479,0.782689 -0.309765,1.17741 -0.374632,1.568363 -0.773687,3.208365 -0.951853,4.817907 -0.05387,0.48663 -0.08343,0.97655 -0.08872,1.466124 -0.0023,0.208669 -0.06066,0.456813 0.06616,0.622538 0.09029,0.117994 0.295093,0.03889 0.443596,0.04361 0.862812,0.02741 3.038121,-0.311493 3.366821,0.777421 0.67522,2.236866 -0.300619,4.268846 -1.063128,6.329146 -0.75199,2.03188 -1.857609,3.97666 -3.123218,5.73066 -0.4234,0.58679 -0.891827,1.14051 -1.308234,1.73228 -0.191479,0.27212 -0.972859,1.26957 -0.642086,1.79844 0.106427,0.17017 0.397854,0.0603 0.598479,0.0662 0.899849,0.0261 2.792916,-0.29887 3.434488,0.73382 0.584635,0.94104 0.342815,1.34239 0.06616,2.28715 -0.103469,0.35334 -0.270853,0.70527 -0.111275,1.08869 0.325371,0.78177 1.456631,1.14049 2.171367,1.39846 0.114691,0.0414 0.452622,0.16161 0.354877,0.0887 -0.278118,-0.20741 -1.181447,-1.07861 -1.463116,-1.1323 -0.14599,-0.0278 -0.390444,0.0516 -0.398485,0.19999 -0.01937,0.35739 0.123298,0.73049 0.332321,1.02103 0.624147,0.86755 1.314571,1.70494 2.127759,2.39842 2.00818,1.71259 5.169642,2.50701 7.64339,3.17585 0.530103,0.14333 1.567253,0.12036 1.506724,0.66615 -0.01977,0.17827 -0.119117,0.36494 -0.266158,0.46766 -0.837519,0.58504 -1.707146,0.51705 -2.327753,-0.31127 -0.388135,-0.51805 0.345283,-0.63352 0.687198,-0.62254 0.446341,0.0143 0.889052,0.13472 1.308234,0.28871 1.728355,0.63493 4.412007,2.45788 4.939708,4.30815 0.858622,3.01057 -0.476059,4.21787 -2.348805,6.28553 -0.146122,0.16133 -1.292543,1.20916 -1.30673,1.46613 -0.04379,0.79314 1.5416,1.11688 1.772882,1.22101 0.62776,0.28266 1.746989,0.80546 2.282641,1.26613 0.768645,0.66105 1.154948,1.03064 1.350338,1.93228 0.06902,0.3185 0.09367,0.67384 -0.177439,0.91125 -0.171865,0.1505 -0.523531,0.0999 -0.353373,0.2436 1.622502,1.37044 4.698652,2.41845 5.383304,4.55326 0.3779,1.17832 -1.280072,2.14653 -2.060091,2.64203 -0.25721,0.16338 -0.537389,0.28797 -0.798474,0.4451 -0.07191,0.0433 -0.228671,0.0766 -0.19849,0.15488 0.181524,0.47098 1.135611,0.71088 1.395449,0.88869 1.300714,0.89012 1.94091,1.37118 2.636014,2.7097 0.22541,0.43406 0.437111,0.89223 0.50976,1.3759 0.07817,0.52043 0.176715,1.11054 -0.06616,1.5774 -0.625242,1.20184 -2.031363,-0.0461 -2.681127,-0.26616 -0.217492,-0.0736 -0.5596,-0.25807 -0.685694,-0.0662 -0.203131,0.30915 -0.05212,0.74352 0,1.10974 0.44057,3.09559 0.711632,3.84039 1.50522,6.70658 0.678027,2.44881 1.351167,4.57423 1.839045,7.01784 0.174938,0.87621 0.313531,1.75955 0.443596,2.64353 0.03997,0.27164 0.198958,0.58072 0.06616,0.82103 -0.347181,0.62829 -1.674758,-1.03481 -1.81649,-1.22101 -0.02413,-0.0317 -0.06139,-0.14693 -0.04361,-0.11128 0.779869,1.56304 1.740375,3.01928 2.724734,4.46453 0.381354,0.55992 0.767903,1.11808 1.195454,1.64357 0.362058,0.44499 1.662786,2.07717 2.503688,2.5097 0.264539,0.13607 0.569615,0.18287 0.864637,0.22104 1.281945,0.16588 -0.236195,-0.10855 0.42104,-0.2436 0.05104,-0.0105 0.01188,0.1036 0.02105,0.15489 0.04247,0.23747 0.08525,0.47495 0.133831,0.71125 0.158442,0.77073 0.318876,1.54108 0.487204,2.30971 0.05786,0.26421 0.85299,3.71616 0.908245,4.01944 0.267493,1.46818 0.410525,2.63282 0.487204,4.0871 0.0144,0.27308 0.07826,1.12108 -0.198491,1.39845 -0.130452,0.13075 -1.27429,0.092 -1.395448,0.13383 -1.872012,0.6466 -2.141808,3.01291 -2.414969,4.64047 -0.125325,0.74672 -0.133807,1.50928 -0.156386,2.2661 -0.04393,1.47249 0,2.94628 0,4.41942 0,0.48871 0.01077,0.97754 0,1.46613 -0.0038,0.171 0.06827,0.38188 -0.04361,0.51126 -0.568203,0.65711 -1.107999,-1.94602 -1.285678,-0.97741 -0.0923,0.50319 -0.05743,1.02156 -0.08722,1.53228 -0.08675,1.48718 -0.126939,1.93649 -0.177439,3.53073 -0.0077,0.24398 0.06257,0.49636 0,0.73231 -0.128488,0.48451 -0.449759,0.41622 -0.775917,0.17744 -1.523006,-1.11501 -2.623793,-2.71115 -3.987856,-3.99688 -1.082541,-1.02038 -2.102014,-1.82109 -3.545763,-2.35482 -1.947026,-0.71979 -4.044474,-0.42832 -6.047947,-0.82103 -1.77914,-0.34873 -1.950131,-1.01081 -2.503688,-2.68714 -0.38343,-1.16114 -0.544415,-2.34073 -0.819525,-3.53073 -0.05917,-0.25592 -0.103736,-0.52135 -0.221047,-0.75637 -0.421047,-0.84352 0.0442,1.2818 -0.664642,0.11128 -0.152937,-0.25255 -0.228556,-0.54462 -0.332322,-0.82103 -0.24364,-0.64901 -0.47132,-1.30389 -0.709754,-1.95483 -0.1385,-0.37812 -0.215012,-0.78632 -0.42104,-1.1323 -0.120481,-0.20232 -0.349332,-0.6162 -0.530812,-0.46615 -0.321092,0.26549 -0.279105,0.78878 -0.354877,1.19846 -0.182146,0.98482 -0.07549,1.98509 -0.266158,2.99841 -0.0027,0.0143 0.0029,-0.0293 0,-0.0436 -0.06387,-0.31886 -0.101293,-0.645 -0.199994,-0.95486 -0.182781,-0.5738 -0.424624,-1.1271 -0.642087,-1.68867 -0.358681,-0.92626 -1.08465,-3.36678 -2.037536,-3.68561 -0.444216,-0.14863 -1.224498,0.46424 -1.485671,0.55487 -0.289678,0.10053 -0.600233,0.16332 -0.906741,0.15488 -0.823981,-0.0227 -1.621525,-0.80672 -2.105203,-1.28718 -0.418087,-0.4153 -0.769137,-0.89545 -1.108239,-1.3774 -1.372554,-1.95076 -2.378228,-3.94656 -4.054019,-5.68555 -0.446757,-0.46361 -0.962054,-0.9732 -1.595443,-1.08869 -3.355763,-0.61191 -4.024734,3.04139 -4.542727,5.37428 -0.259379,1.16816 -0.198491,2.82602 -0.198491,4.01943 v 0.4451 c 0,-0.442 0.01009,-1.20645 -0.06616,-1.55484 -0.453546,-2.07219 -1.418507,-4.42816 -2.814956,-6.06298 -0.465541,-0.54501 -0.832852,-0.70638 -1.439057,-0.66615 -0.172096,0.0114 -0.370595,-0.0132 -0.50976,0.0887 -0.116301,0.0851 -0.746623,1.36559 -0.753362,1.3774 -0.282651,0.4956 -0.582701,0.98119 -0.885691,1.46462 -0.0592,0.0944 -0.10456,0.21025 -0.19999,0.26766 -0.38862,0.23381 -0.7255,-0.13018 -1.01952,-0.33382 -0.19435,-0.1346 -0.33752,-0.34716 -0.55337,-0.4436 -1.09983,-0.49136 -1.17205,-0.15185 -1.72777,1.04358 -0.25162,0.54127 -0.39701,1.12837 -0.53231,1.70973 -0.34567,1.48519 -0.53836,2.88905 -0.75337,4.37581 -0.0449,0.31065 -0.0777,0.62322 -0.13232,0.93231 -0.0266,0.15059 0.0342,0.39798 -0.11128,0.4451 -0.7662,0.24813 -1.22811,-1.86683 -1.618,-1.06764 -1.05332,2.15906 -1.64611,5.74942 -2.21497,7.99676 -0.16784,0.66306 -0.37556,1.31543 -0.55337,1.97588 -0.16478,0.61207 -0.20912,1.26415 -0.46615,1.84356 -0.006,0.0133 -0.0291,0 -0.0436,0 v -0.2451 c 1.696263,-1.45816 2.887948,-2.36639 0,1.88866 -0.424279,0.62512 0.14844,1.50925 0.33232,2.24204 0.31778,1.2664 1.37118,2.87089 2.21497,3.842 0.25057,0.28837 0.54729,0.53444 0.84209,0.77742 0.25676,0.21163 0.523,0.2185 0.66464,0.55638 0.0487,0.11623 0.0202,0.25142 0.0226,0.37743 0.005,0.27363 0,0.54735 0,0.82103 v 2.08716 c 0,1.04408 -0.005,2.08817 0,3.13224 0.003,0.6737 -0.0367,1.3499 0.0226,2.02099 0.0433,0.49036 0.10204,2.01361 0.68569,2.59842 0.56185,0.56297 1.38183,-0.55645 1.64056,-0.37743 0.39276,0.27175 0.54848,0.71999 0.81952,1.08719 0.82322,1.11527 1.13231,1.54854 2.56985,1.35485 0.21076,-0.0284 0.42784,-0.0941 0.59848,-0.22105 0.297809,-0.22148 0.555923,-0.49997 0.774416,-0.79998 0.529896,-0.72758 0.76071,-1.63691 1.240566,-2.39842 0.103397,-0.16409 0.239536,-0.4642 0.422545,-0.39999 0.267223,0.0937 0.374006,0.44296 0.464648,0.71125 0.33041,0.978 0.374256,3.03775 1.151847,3.88561 0.204457,0.22293 1.055063,0.15638 1.240566,0.15638 1.037395,0 1.777737,0.0618 2.813453,-0.22255 0.471076,-0.12932 2.225236,-1.12194 2.503688,-1.24357 0.201758,-0.0881 0.455911,-0.27241 0.642086,-0.15488 0.602119,0.3801 0.459217,2.61992 0.466153,2.68714 0.107999,1.04676 0.250289,1.91327 1.174402,2.62098 0.281524,0.2156 0.685984,0.21847 1.040572,0.22104 2.238121,0.0162 3.078486,-0.76269 4.941212,-1.821 0.415172,-0.23588 1.281584,-1.07035 1.772881,-0.31127 0.653063,1.00902 0.936533,2.37203 1.395449,3.46457 0.242304,0.57685 0.411303,1.21451 0.819525,1.68867 0.684074,0.79456 1.464657,1.55362 2.392413,2.04205 0.451118,0.23749 1.023449,0.0862 1.529279,0.0225 1.638175,-0.20603 2.362942,-0.77496 3.832973,-1.66461 0.585345,-0.35425 1.47245,-1.09173 2.148811,-1.3323 0.891229,-0.31698 1.117915,0.36512 1.861601,0.62104 0.654905,0.22537 2.772162,-0.0522 3.411932,-0.33232 0.576014,-0.25218 1.105656,-0.60083 1.639051,-0.93381 0.03623,-0.0226 1.91314,-1.54283 2.592407,-1.42101 0.929424,0.16667 1.061344,2.48784 1.085683,2.59842 0.35182,1.59846 0.515877,3.8467 2.724734,3.73072 1.35734,-0.0713 2.816375,-0.82996 3.944248,-1.39846 2.176415,-1.09701 4.108564,-2.64973 6.268993,-3.77583 1.160012,-0.60464 1.884812,-0.0985 3.036004,-0.11127 0.343718,-0.004 0.687672,-0.0652 1.019519,-0.15489 0.712328,-0.1924 1.402466,-0.45913 2.103699,-0.6887 0.731308,-0.20751 1.458694,-0.42937 2.193923,-0.62254 1.985037,-0.52151 1.370585,-0.16649 3.744251,-1.08718 0.48991,-0.19003 0.966569,-0.41978 1.418009,-0.6887 0.18788,-0.11193 1.78188,-1.31414 2.32625,-1.53229 0.36436,-0.14602 1.05441,0.16637 1.28567,0.2436 0.26801,0.0895 0.52204,0.22354 0.79697,0.28871 1.60873,0.38133 3.30532,0.57202 4.80739,-0.35487 0.35575,-0.21953 2.49154,-2.01416 1.8616,-2.97586 -0.49416,-0.75441 -2.04229,-1.40011 -2.76985,-1.90972 -0.13157,-0.0922 -0.59864,-0.36045 -0.19999,-0.53382 1.0452,-0.45454 1.49935,-0.38849 2.63752,-0.66614 1.37933,-0.33649 3.12321,-0.73731 4.40889,-1.46613 0.34043,-0.19297 2.45197,-1.25454 2.41497,-2.3097 -0.0605,-1.72564 -1.85548,-2.81043 -2.81345,-3.97433 -1.26908,-1.54187 -1.66696,-2.69209 -1.44056,-4.70964 0.21231,-1.89202 1.93057,-3.26894 3.21194,-4.48558 2.11945,-2.0124 4.1183,-3.87696 5.18481,-6.70658 0.24037,-0.63773 0.38848,-1.34402 0.30977,-2.02099 -0.41562,-3.57452 -1.98786,-4.54361 -5.22843,-5.44195 -0.76416,-0.21184 -1.57321,-0.21229 -2.3488,-0.37743 -0.30607,-0.0652 -0.67121,-0.0834 -0.88569,-0.31127 -0.50139,-0.53269 -0.16204,-1.2156 0.19999,-1.64206 0.44317,-0.52203 0.95441,-0.98351 1.46162,-1.44357 0.69558,-0.63093 4.88479,-3.69317 3.9653,-5.04196 -0.56038,-0.82201 -3.02457,-1.16087 -3.34427,-1.24357 -2.4046,-0.62203 -5.5942,-0.92455 -6.73514,-3.53073 -0.20506,-0.4684 -0.10009,-1.02838 -0.0226,-1.53379 0.21885,-1.4266 1.02107,-2.62654 1.72777,-3.842 0.77503,-1.33296 1.83609,-2.47017 1.26312,-4.1307 -0.17318,-0.50189 -1.35258,-1.6132 -1.64055,-1.90972 -1.59247,-1.63976 -2.40717,-2.05752 -2.74579,-4.39687 -0.21095,-1.45736 0.36644,-3.27367 0.77442,-4.66453 0.45915,-1.56532 0.85515,-3.09278 1.10823,-4.70813 0.0634,-0.40446 0.13585,-0.81165 0.13233,-1.22102 -0.007,-0.8496 0.0877,-1.51318 -0.70825,-1.93228 -0.6906,-0.36363 -2.05795,-0.34096 -2.32625,-1.30973 -0.27006,-0.97513 0.15277,-2.07938 0.70825,-2.86458 0.007,-0.0105 0.79546,-0.84609 0.75336,-1.08869 -0.0272,-0.15698 -0.6146,-0.50557 -0.70825,-0.57743 -0.4049,-0.31073 -0.8305,-0.59961 -1.19696,-0.95486 -0.81402,-0.78913 -1.28024,-1.72447 -1.70521,-2.77737 -0.47519,-1.17732 -0.47609,-2.57932 -0.17744,-3.79688 0.2464,-1.00456 1.00194,-2.87733 0.59848,-3.97583 -0.66745,-1.81727 -1.33564,-1.75155 -2.59241,-3.24201 -0.35858,-0.42525 -0.6055,-0.9333 -0.90824,-1.39996"
       id="path389-3"
       sodipodi:nodetypes="cssssssssssssssssccssssssssssssscsscsssssscsscscsssssccsssssssssssscsssssscssssccscsssssssscsscssssssssscsssssssscssssssssssssssssssssssssssssssscssscssssssssssssssscsscssssssscssssssssssscscsssssssscssscssssccsssssscssssssssssscssssssssssssssssssssssscssssssssssscsssccssscsssssssssccsssssssscssssscsscsssssssssssssscsssssssssscccsssssssssssssssssssssssssscsssssscssccssssssc" />
    <path
       style="fill:#13adc4;fill-opacity:1;stroke:#124247;stroke-width:1.5;stroke-linecap:round;stroke-linejoin:round;stroke-dasharray:none;stroke-opacity:1"
       d="m 159.00147,44.743078 c 3.03571,-1.297156 3.93118,-2.231298 7.09002,-1.888667 0.46622,0.05057 0.99448,0.237114 1.26162,0.622538 0.84535,1.219664 0.0303,3.388214 -0.39848,4.396867 -1.12325,2.642427 -2.74007,5.286472 -4.09913,7.840377 -0.32999,0.620098 -2.40744,3.904681 -2.26009,5.419393 0.24379,2.506115 1.84399,2.800284 3.7232,3.708165 2.32687,1.124154 4.87624,2.22322 6.04795,4.753247 1.39985,3.022665 -0.0224,5.870921 -0.42104,8.838845 -0.021,0.156235 -0.0881,1.964539 0,2.464591 0.12836,0.728828 0.46127,1.041434 0.66464,1.798445 0.30281,1.127186 -0.12106,2.4365 0.13383,3.553281 0.12314,0.539521 0.68919,0.47473 1.08568,0.556375 0.56161,0.115644 2.45388,0.301774 2.92323,1.04358 1.28159,2.025553 0.32471,3.377999 -0.53081,5.485559 -0.32486,0.80029 -0.80399,1.52946 -1.17441,2.30971 -0.28,0.5898 -0.67918,1.15275 -0.77591,1.79844 -0.0875,0.58404 -0.0334,1.23327 0.2436,1.75484 0.19336,0.36411 0.65079,0.53629 1.04207,0.66614 1.71831,0.570246 2.45007,0.379356 4.09914,0.666146 0.3097,0.0539 2.45576,0.1617 2.61345,1.15485 0.19557,1.23168 -0.45593,2.34406 -1.04057,3.33073 -0.43106,0.7275 -0.91057,1.42522 -1.37439,2.13227 -0.74228,1.13151 -1.02864,1.27898 -1.35185,2.73226 -0.0917,0.41222 -0.062,0.84424 -0.0436,1.26613 0.16534,3.78069 0.10694,0.90188 0.50976,3.8856 0.19864,1.4714 0.29349,2.9825 0.13232,4.46453 -0.15731,1.44661 -0.82431,2.88458 -1.28417,4.21943 -0.19516,0.5665 -0.36573,1.14119 -0.55487,1.70973 -0.13026,0.39155 -0.90515,2.49117 -1.01802,3.26456 -0.07,0.47984 -0.13958,2.02864 -0.0451,2.59843 0.0873,0.52626 0.42458,0.77687 0.64209,1.24507 0.1904,0.40986 0.37295,0.82778 0.48871,1.26463 0.51587,1.94677 0.20319,5.98951 -0.0226,7.75166 -0.33852,2.64243 -1.5811,7.15154 -2.19392,9.39371 -0.13733,0.50247 -1.32169,4.02546 -1.28418,4.93069 0.007,0.17377 0.34147,0.15515 0.50976,0.11127 0.59319,-0.15464 1.1221,-0.4996 1.70522,-0.6887 1.08795,-0.3528 2.20838,-0.72121 3.36832,-0.51126 2.08196,0.37682 2.29185,2.88873 2.52474,4.53069 0.45719,3.22324 0.55709,6.48855 1.08569,9.70499 0.15783,0.9604 0.33886,1.3011 0.68719,2.15483 0.0225,0.0551 0.0483,0.1985 0.0887,0.15488 0.41147,-0.44362 0.30686,-0.38438 0.64209,-1.10974 0.58068,-1.25648 1.46249,-3.16143 1.99393,-4.44198 1.29872,-3.12938 2.30347,-5.63391 3.30216,-8.90651 1.05292,-3.45031 1.52701,-7.04131 1.63905,-10.63729 0.0461,-1.47937 0.0465,-3.78669 -0.13383,-5.19685 -0.14565,-1.13885 -0.64353,-2.92146 -0.95185,-4.15326 -0.1739,-0.69477 -0.25251,-0.28968 -0.30977,-1.35485 -0.0451,-0.8387 0.28777,-2.37125 0.35338,-3.04202 0.0614,-0.62726 0.0582,-1.25915 0.0887,-1.88867 0.0502,-1.03653 0.13226,-2.07141 0.17744,-3.10818 1e-5,-6e-5 -0.0104,-1.19636 0.0226,-1.26613 0.0714,-0.15123 0.25076,-0.22139 0.37593,-0.33232 0.19211,-0.17026 0.3959,-0.32826 0.57592,-0.51126 0.14267,-0.14503 2.03668,-2.15712 2.19392,-2.48715 0.1415,-0.29698 0.26741,-0.62826 0.24361,-0.95636 -0.0316,-0.43518 -0.74211,-0.89065 -0.99697,-1.08719 -0.26332,-0.20306 -0.5549,-0.372 -0.79697,-0.59998 -0.61128,-0.57572 -0.51586,-1.50881 -0.0451,-2.13227 0.84581,-1.12018 2.52588,-2.63752 3.45704,-3.55328 1.73099,-1.70236 1.86167,-1.80008 3.50066,-4.01944 0.35581,-0.48181 0.72145,-0.9668 0.9744,-1.50973 0.34244,-0.73499 0.79725,-1.50195 0.0887,-2.08866 -0.27246,-0.22562 -0.63306,-0.31874 -0.9308,-0.50976 -0.17685,-0.11346 -0.40843,-0.20519 -0.4872,-0.39999 -0.7734,-1.91249 0.89166,-5.03066 1.63905,-6.617846 0.93303,-1.98142 1.78856,-3.64122 2.81345,-5.55323 0.73199,-1.36556 1.51174,-2.70578 2.21648,-4.085596 0.72137,-1.412381 1.75876,-3.502352 1.6165,-5.174286 -0.23347,-2.743896 -3.57393,-3.919482 -3.52171,-6.685523 0.009,-0.474997 -0.0212,-0.964331 0.10977,-1.421012 0.55196,-1.925029 1.87157,-3.624885 2.99089,-5.241955 1.69475,-2.448368 2.82159,-3.992359 3.78937,-6.861457 0.62726,-1.859589 0.47496,-2.857832 0.55337,-4.930686 0.0756,-1.999799 0.0504,-3.002329 0.44359,-5.041961 0.23357,-1.211599 1.14915,-5.516867 1.92777,-7.084008 0.5443,-1.095529 1.15422,-2.1796 1.94881,-3.109685 1.44708,-1.693813 4.3534,-3.733161 6.44794,-4.751744 0.66368,-0.32275 1.35776,-0.578825 2.03754,-0.86614 0.30216,-0.127713 0.59112,-0.294987 0.90824,-0.378937 0.31632,-0.08374 1.44082,-0.259931 1.8616,-0.08722 1.13019,0.463902 1.07094,0.77427 1.88416,1.575894 0.59583,0.587331 1.18736,1.18319 1.83754,1.709726 1.51845,1.229692 4.04664,2.243898 4.67505,4.287095 0.50109,1.62922 0.19448,2.306412 0.0226,3.841995 -0.28421,2.538592 -0.60245,5.478733 -0.11128,8.016312 0.29189,1.508019 1.26705,2.327016 2.17137,3.509674 0.57355,0.75008 1.34941,1.573961 1.24057,2.643533 -0.0884,0.868481 -0.41025,1.705491 -0.75337,2.508199 -0.3682,0.861412 -1.72468,2.572193 -1.77137,3.820943 -0.0664,1.775352 0.94674,2.606149 2.17136,3.664557 0.9174,0.792883 2.42428,1.581456 2.14881,3.108182 -0.2241,1.242052 -1.41767,2.528876 -2.21647,3.420954 -0.54765,0.611598 -1.15354,1.170751 -1.68266,1.798445 -0.19728,0.234032 -0.44671,0.474227 -0.48871,0.777421 -0.1503,1.084876 1.57982,0.933904 2.14881,1.377405 0.62635,0.488207 1.09279,1.044472 0.97591,1.887164 -0.30263,2.182017 -0.6969,2.188545 -1.52928,4.108151 -0.89783,2.07057 -1.4564,3.27716 -1.77288,5.39684 -0.14937,1.00044 -0.20609,2.01269 -0.28721,3.02097 -0.0517,0.64308 -0.005,1.29586 -0.11127,1.932266 -0.15377,0.92412 -0.3845,1.83679 -0.66465,2.73074 -0.0162,0.0516 -1.46082,3.76997 -1.6616,4.33071 -0.48536,1.35547 -1.05594,3.24198 -1.48417,4.53069 -0.17571,0.52879 -0.39928,1.04192 -0.55337,1.5774 -0.64911,2.25575 -0.33766,1.56886 -0.62103,3.95327 -0.2273,1.91255 -0.56455,3.21241 -1.17441,5.17429 -0.46171,1.48532 -1.22886,3.08219 -1.94881,4.44198 -0.63421,1.19783 -1.10344,1.57311 -1.63905,2.90969 -0.30457,0.76003 -0.50688,1.88247 -0.55487,2.73075 -0.0373,0.65823 0.0215,1.32132 -0.0436,1.97738 -0.16186,1.63091 -0.98664,3.72832 -1.59545,5.04046 -0.72028,1.55242 -1.57675,3.03865 -2.41496,4.5307 -1.47715,2.62937 -2.08848,2.99873 -3.12473,5.86299 -0.29482,0.81492 -0.17137,1.84762 -0.0211,2.66609 0.26512,1.44353 0.22088,-0.41714 0.28721,1.50973 0.0624,1.81263 0.0717,3.75426 -0.13233,5.55172 -0.0588,0.51787 -0.2107,1.02089 -0.31126,1.53229 -0.72094,3.66628 0.31161,-1.25601 -0.97441,4.30965 -0.20269,0.87719 -0.32313,1.48257 -0.2436,2.39843 0.0908,1.04589 1.21614,2.13868 1.01951,3.15329 -0.43375,2.23828 -1.78169,3.46578 -3.23449,5.2194 -3.24748,3.91991 -0.60507,0.47881 -3.70064,4.10815 -0.44953,0.52704 -2.0038,2.13015 -2.19393,3.24201 -0.19913,1.16456 0.31159,1.47963 0.6872,2.57587 0.55683,1.62513 0.54689,2.66221 0.2,4.5322 -0.15021,0.80973 -0.45985,1.58991 -0.81953,2.33076 -0.57491,1.18418 -1.24914,2.32141 -1.97288,3.42096 -6.57267,9.98563 0.56231,-1.41852 -3.49914,4.68558 -0.89918,1.3514 -1.14443,1.5407 -1.30824,2.90969 -0.14562,1.21707 0.018,2.22666 -0.55336,3.35328 -0.67383,1.32854 -1.41762,2.62924 -2.28265,3.842 -0.60491,0.84809 -1.35093,1.5912 -2.1052,2.30971 -2.31192,2.2023 -4.47364,4.01073 -7.04491,5.81938 -1.74462,1.22718 -4.75063,3.36297 -6.93364,4.21943 -1.44084,0.56528 0.6831,-1.7722 0.73081,-1.97739 0.0236,-0.10154 -0.6238,-0.14164 -1.01952,-0.0887 -0.7368,0.0985 -1.46888,0.23599 -2.19392,0.39999 -0.65021,0.14707 -1.27538,0.39523 -1.92777,0.53232 -1.80428,0.37914 -3.28537,0.59543 -5.07203,0.71125 -0.4084,0.0265 -2.3515,0.13253 -2.81496,-0.11127 -0.77379,-0.40706 -0.78737,-2.88314 -0.86313,-3.41945 -0.12107,-0.85706 -0.44166,-2.08096 -0.82103,-2.79842 -0.53242,-1.00689 -2.4837,-1.07014 -3.41043,-1.59995 -0.65335,-0.37353 -1.32448,-0.76055 -1.83904,-1.30974 -1.8031,-1.92444 -1.34252,-5.86403 -0.79848,-8.12909 0.17609,-0.73311 0.50475,-1.4231 0.81953,-2.10821 0.69342,-1.50921 1.56014,-3.11189 2.43752,-4.55325 0.21138,-0.34725 0.4911,-0.65492 0.66465,-1.02253 0.0898,-0.19018 0.29474,-0.51822 0.11127,-0.62104 -0.35462,-0.19872 -0.81408,-0.0295 -1.21951,0 -0.60134,0.0438 -3.20493,0.62315 -3.85403,0.0887 -1.10178,-0.90712 -0.88108,-1.91784 -0.86464,-3.22096 0.0258,-2.0441 0.92416,-4.7425 0.15489,-6.70657 -0.33662,-0.85944 -2.93411,-3.43458 -3.0345,-3.55328 -0.96185,-1.13728 -2.73152,-3.11464 -3.05856,-4.81941 -0.37405,-1.94982 -0.15389,-3.51128 0.33232,-5.35173 0.52646,-1.99281 1.96684,-4.85915 1.21951,-6.99679 -0.61563,-1.76094 -1.02525,-1.72162 -1.70671,-3.1969 -0.57233,-0.82704 -0.6091,-1.86584 -1.01952,-2.75481 -0.21936,-0.47513 -0.5378,-0.90055 -0.75337,-1.37741 -0.8266,-1.82851 -1.04256,-2.51577 -1.28417,-4.50814 -0.15802,-1.30312 -0.61444,-5.51942 -0.15488,-7.084 0.18088,-0.61583 0.57616,-1.14746 0.88569,-1.70973 0.16342,-0.29687 0.55988,-0.52838 0.53231,-0.86614 -0.0273,-0.33415 -0.35703,-0.62156 -0.66464,-0.75487 -0.55732,-0.24152 -1.19394,-0.22677 -1.79544,-0.31127 -1.29714,-0.18222 -2.60288,-0.30027 -3.89913,-0.4887 -1.09388,-0.15902 -5.95187,-0.60688 -4.74122,-2.9533 1.54284,-2.99027 4.91028,-4.85673 7.42234,-6.84041 1.34685,-1.06355 2.64398,-1.98482 2.90217,-3.8871 0.40075,-2.95256 -2.9091,-5.04008 -4.14273,-7.32912 -0.47708,-0.88523 -0.38118,-1.59701 -0.39849,-2.61947 -0.0229,-1.35466 0,-2.7097 0,-4.06455 0,-1.6078 0.0841,-3.22076 -0.37743,-4.79836 -0.57318,-1.95923 -1.28103,-2.81878 -2.52625,-4.24048 -0.13938,-0.15914 -2.19622,-2.14178 -2.41346,-2.93224 -0.74689,-2.71765 1.83544,-4.694016 3.07961,-6.729126 0.16934,-0.27698 0.27783,-0.5873 0.39849,-0.88869 0.6619,-1.65345 0.78113,-1.96676 1.19545,-3.61945 0.22494,-0.89726 0.7829,-3.18508 0.9308,-4.308146 0.24844,-1.886485 0.12367,-2.17022 0.42104,-3.798387 0.16327,-0.893917 0.37351,-1.778711 0.57592,-2.664585 0.19123,-0.836885 0.37542,-1.316796 0.39999,-2.154826 0.0243,-0.82803 -0.72185,-1.402818 -0.9308,-2.175877 -0.0909,-0.336123 -0.0719,-0.696427 -0.0451,-1.043579 0.0472,-0.611632 0.12704,-1.223535 0.26616,-1.821001 0.17121,-0.735274 1.01436,-2.447492 0.66464,-3.332235 -0.2876,-0.727591 -1.19005,-1.25696 -1.63905,-1.732281 -1.05379,-1.115573 -2.40381,-2.613758 -2.68113,-4.219428 -0.092,-0.532896 -0.0845,-1.080531 -0.0662,-1.621007 0.0114,-0.337105 0.0237,-0.689234 0.15488,-0.999971 0.45587,-1.079728 1.51716,-2.23901 2.19242,-3.130737 0.3199,-0.422441 0.6278,-0.853971 0.9308,-1.288685 0.81579,-1.170394 1.09708,-1.616323 1.79544,-2.930743 0.59865,-1.126751 0.12544,-0.315028 0.4872,-1.377405 0.2144,-0.629593 0.77895,-1.296137 1.19546,-1.798444 1.44144,-1.738352 3.41504,-2.855729 5.09609,-4.330703 0.79671,-0.699036 1.0195,-0.958051 1.66161,-1.821001 0.0932,-0.125242 0.16497,-0.26513 0.2436,-0.399988 0.0252,-0.04318 0.023,-0.111375 0.0677,-0.133831 0.22147,-0.111363 0.71739,0.149619 0.90824,0 0.60485,-0.474155 1.10774,-1.065634 1.66161,-1.598451 z"
       id="path261" />
    <path
       style="fill:#13adc4;fill-opacity:1;stroke:#124247;stroke-width:1.5;stroke-linecap:round;stroke-linejoin:round;stroke-dasharray:none;stroke-opacity:1"
       d="m 100.18059,119.42364 c 0.77541,0.17744 1.53572,0.44392 2.32625,0.53232 2.03189,0.22722 4.13425,-0.73064 5.73818,-1.86611 0.68207,-0.48286 1.61145,-1.35031 1.28568,-1.66462 -0.29225,-0.28196 -1.06634,-0.19999 -1.3744,-0.19999 -1.96063,0 -3.90922,0.17744 -5.87051,0.17744 -0.26285,0 -1.53443,0.0987 -1.79393,-0.11128 -0.36288,-0.29364 -0.5764,-1.67694 -0.59848,-1.75333 -0.30851,-1.0673 -0.79554,-2.09658 -0.86464,-3.22096 -0.0622,-1.01229 0.28153,-2.49582 -0.35488,-3.35329 -0.67414,-0.90831 -1.20698,-1.23154 -2.103694,-1.88866 -0.302758,-0.22187 -0.657983,-0.417 -0.908245,-0.70976 -0.196914,-0.23035 0.02424,-0.3012 0.198491,-0.42254 0.03028,-0.0211 0.125335,-0.0617 0.08872,-0.0662 -0.146951,-0.0181 -0.298279,-0.006 -0.443596,0.0225 -1.065407,0.20786 -1.70728,0.50256 -2.813453,0.75486 -0.835738,0.19063 -1.6756,0.37143 -2.52474,0.48871 -0.439164,0.0607 -0.889196,0.0971 -1.329285,0.0436 -0.06773,-0.008 -0.0046,-0.1517 0.04361,-0.19999 0.212134,-0.21256 0.471811,-0.37167 0.709755,-0.55487 0.559536,-0.43082 1.108748,-0.87571 1.682658,-1.28718 0.678197,-0.48625 1.428437,-0.86662 2.105203,-1.35485 0.131708,-0.095 0.506062,-0.27451 0.354877,-0.33383 -0.271497,-0.10651 -0.57936,0.0732 -0.864637,0.13383 -0.988798,0.21008 -0.995262,0.34876 -1.993928,0.39999 -0.399552,0.0205 -0.999497,0.17062 -0.687198,-0.35638 0.230107,-0.38831 0.503443,-0.7499 0.775918,-1.10974 0.63251,-0.83533 1.823594,-1.843366 1.174402,-3.043525 -0.273759,-0.506097 -1.466321,-1.936272 -1.72777,-2.287152 -1.010524,-1.356186 -1.838988,-2.796147 -2.947284,-4.085597 -0.163694,-0.190451 -0.307209,-0.461531 -0.553368,-0.511264 -0.409408,-0.08272 -0.365663,0.655617 -0.377432,1.17741 -0.0087,0.384853 -0.01737,0.770295 0,1.154854 0.0048,0.105477 -0.03664,0.333859 0.06616,0.309766 0.273967,-0.06421 0.279213,-0.851446 0.288714,-1.243574 0.01505,-0.621354 0.0084,-1.243128 0,-1.864608 -0.02693,-2.00177 -0.02985,-1.280055 -0.354877,-3.598393 -0.04869,-0.347249 -0.09989,-0.694438 -0.132327,-1.043579 -0.03291,-0.354171 0.04116,-0.721059 -0.04511,-1.066135 -0.04423,-0.176916 -0.14804,-0.140427 -0.175935,-0.332322 -0.04261,-0.293151 0,-0.592464 0,-0.888696 v -1.754837 c 0,-0.39247 0.04181,-0.787173 0,-1.17741 -0.0023,-0.02114 -0.04079,0.02429 -0.04511,0.04511 -0.04107,0.197954 -0.06642,0.399047 -0.08872,0.599983 -0.153111,1.379735 -0.197723,1.738305 -0.221046,2.996906 -0.0071,0.384886 0,0.769903 0,1.154854 v 0.156387 c 0,-1.874835 0.0782,-3.751927 -0.133831,-5.619388 -0.398361,-3.508592 -0.165767,0.113474 -0.530811,-3.974322 -0.03371,-0.377447 -0.176215,-1.743812 0.04361,-2.288657 0.120603,-0.298923 0.793293,-1.518315 0.864637,-1.664614 0.300497,-0.616196 0.590241,-1.237857 0.864637,-1.866112 0.292869,-0.670549 1.503783,-2.527459 2.157361,-2.984861 3.588224,-0.130818 3.698284,9.177622 4.665114,11.962769 0.09386,0.252969 1.154618,3.269168 1.772764,3.548048 0.353544,0.159504 0.729567,-0.31903 0.996964,-0.599982 0.992122,-1.042415 1.844762,-3.654142 2.526242,-4.930686 0.11152,-0.208895 0.20786,-0.532517 0.4436,-0.554871 0.62906,-0.05965 1.6789,1.083247 1.99392,1.332292 0.95809,0.757429 1.74167,1.571268 2.9909,1.709726 1.15342,0.127839 1.90179,-0.362771 2.85706,-0.998468 0.16886,-0.112376 1.26545,-1.239414 1.61799,-1.288685 0.16604,-0.0232 0.26598,0.21425 0.35488,0.356381 0.46989,0.751225 0.59674,2.189152 1.81649,2.042047 1.14879,-0.138547 1.7704,-0.573667 2.70218,-1.132299 0.279,-0.167271 1.50056,-1.074798 2.15031,-1.132298 0.53872,-0.04767 0.44085,0.561005 0.50976,0.887192 0.0501,0.237298 0.0308,0.501985 0.15338,0.711258 0.13849,0.23642 0.94392,0.172338 1.01952,0.156387 0.52862,-0.111534 1.053,-0.260197 1.55184,-0.467656 0.44705,-0.185923 2.45186,-1.652115 3.01194,-1.154854 0.45542,0.404341 -0.47125,2.655016 1.19696,2.111218 1.35655,-0.442204 2.81396,-2.545962 3.4781,-3.598394 0.26845,-0.425409 0.47234,-0.890025 0.66464,-1.354848 0.09,-0.217429 0.0183,-0.497073 0.15488,-0.688702 0.10638,-0.149293 0.26137,-0.258095 0.37743,-0.399989 0.0496,-0.06067 1.35412,-1.769051 1.41801,-1.864608 0.75973,-1.136324 1.18988,-2.11911 1.77138,-3.420954 0.12088,-0.270639 0.9455,-2.296227 1.08718,-2.753305 0.076,-0.245348 0.0833,-0.508176 0.15489,-0.754866 0.0205,-0.07076 0,0.147365 0,0.221047 0,0.599982 -0.0118,1.200082 0,1.799948 0.002,0.118477 -0.0789,0.291297 0.0211,0.354877 0.46183,0.293635 2.62429,-1.586058 2.94728,-2.087158 0.47908,-0.743255 -0.41949,-0.788787 -0.84208,-1.154854 -0.58784,-0.509217 -1.09106,-0.932607 -0.9308,-1.777393 0.2547,-1.342626 0.77872,-2.063766 1.39695,-3.219457 0.18403,-0.344003 1.05315,-1.809367 0.99546,-2.377375 -0.23021,-2.266618 -3.57901,-2.927529 -4.71866,-4.730692 -0.23707,-0.375098 -0.16196,-1.433053 -0.10977,-1.732281 0.10638,-0.609903 1.02323,-1.682654 0.0887,-2.109714 -2.59869,-1.187574 -5.57887,-0.478251 -8.19826,-1.509731 -0.607,-0.239029 -1.26669,-0.597695 -0.99697,-1.421012 0.17217,-0.525518 1.72326,-1.175797 1.92777,-1.266129 3.00459,-1.327182 2.15553,-0.736972 5.00737,-2.175878 0.31698,-0.159931 0.61714,-0.35313 0.90825,-0.556375 0.12416,-0.08669 0.39533,-0.172065 0.33232,-0.309765 -0.17109,-0.373871 -3.32861,-0.245106 -3.36833,-0.245106 -1.03238,0 -1.6309,0.04274 -2.68112,-0.154883 -0.26825,-0.05048 -0.51673,-0.176121 -0.77442,-0.266158 -1.29307,-0.451811 -2.5227,-1.063647 -3.85552,-1.39996 -2.28492,-0.576556 -4.73239,-0.644239 -6.86898,-1.754837 -0.3925,-0.204021 -0.79173,-0.421735 -1.10674,-0.732309 -0.19981,-0.197006 -0.22482,-0.935019 -0.17743,-1.154855 0.0981,-0.455289 0.22194,-0.911244 0.42104,-1.332292 0.21046,-0.445094 0.5236,-0.834094 0.79697,-1.243574 0.26693,-0.399834 2.16265,-3.11306 2.28264,-3.309679 0.13319,-0.218254 0.41594,-0.490342 0.28721,-0.711258 -0.12731,-0.218471 -0.50646,-0.143259 -0.75336,-0.08872 -0.44589,0.09849 -0.84447,0.348086 -1.26162,0.533819 -0.59739,0.265976 -2.35402,1.129671 -2.99089,1.309737 -0.63595,0.179801 -1.29168,0.302208 -1.95032,0.356381 -0.42817,0.03522 -0.86711,0.0065 -1.28568,-0.09022 -0.69926,-0.161663 -0.30781,-1.107179 -0.41954,-1.553339 -0.0838,-0.334634 -0.28006,-0.604073 -0.57743,-0.777422 -0.40009,-0.23323 -0.95927,-0.370428 -1.41649,-0.333825 -0.47252,0.03783 -0.95724,0.0891 -1.39696,0.266158 -0.88282,0.355481 -1.88376,1.544208 -2.52624,2.243545 -0.038,0.04133 -0.16796,0.227344 -0.19849,0.04361 -0.074,-0.445011 0,-0.90223 0,-1.353345 0,-0.984934 0.0386,-1.970624 0,-2.954803 -0.008,-0.193586 0.12341,-0.537481 -0.0662,-0.577427 -0.197,-0.04151 -0.26961,0.306336 -0.35488,0.488708 -0.24912,0.532814 -0.4527,1.086708 -0.64209,1.643562 -0.35725,1.050464 -0.66759,2.116312 -0.99696,3.175849 -0.16535,0.531908 -0.31814,1.06771 -0.4872,1.59845 -0.11167,0.350543 -0.15275,0.737687 -0.35488,1.045083 -0.12065,0.183485 -0.613155,-0.106385 -0.885689,-0.4451 -0.676536,-0.840819 -1.177402,-1.811997 -1.839045,-2.664585 -0.427297,-0.550611 -1.506273,-2.434673 -2.614963,-1.666118 -0.664255,0.460469 -1.35615,1.441259 -1.927764,2.020995 -1.040614,1.055397 -2.700611,2.387327 -4.254014,2.420983 -1.339834,0.02903 -2.04404,-0.280632 -3.211938,-0.754865 -0.681355,-0.276669 -2.019562,-1.003697 -2.813453,-0.888697 -0.300419,0.04352 -0.522973,0.354072 -0.664643,0.622539 -0.410695,0.778273 -0.898036,2.505456 -1.130795,3.464562 -0.07569,0.311904 -0.257936,1.565269 -0.530811,1.887164 -0.09672,0.114096 -0.294163,0.06115 -0.443597,0.06767 -0.369062,0.01609 -0.738826,0 -1.108239,0 h -2.702178 c -0.46515,0 -0.931276,-0.03012 -1.395449,0 -1.766271,0.114626 -2.472804,0.361439 -4.32168,0.975912 -0.484308,0.16096 -0.982146,0.31193 -1.418005,0.577427 -0.366363,0.223166 -0.723858,0.502764 -0.951852,0.866141 -0.134258,0.21398 -0.03077,1.419125 -0.02256,1.599954 0.154701,3.406054 -0.0041,-0.278706 0.04511,1.643562 0.01183,0.462089 0.181703,0.952703 0.398485,1.354849 0.105157,0.195072 0.191366,0.253062 0.132327,0.266157 -0.137017,0.03039 -0.280837,-0.0063 -0.42104,0 -0.746156,0.03378 -1.183479,-0.01102 -1.839045,0.354877 -1.743826,0.973299 -1.882154,2.81217 -2.392413,4.48709 -0.553403,1.816536 -1.450739,3.843886 -2.658571,5.306615 -0.882215,1.068395 -2.015547,2.115244 -3.211938,2.820972 -0.233618,0.137807 -1.072802,0.373105 -1.219514,0.577427 -0.266205,0.370737 0.331494,0.617103 0.488708,0.754865 0.896574,0.785642 0.627684,1.548626 0.04361,2.620978 -0.305637,0.561143 -0.728885,1.053332 -1.151847,1.532287 -1.751084,1.982899 -2.356373,2.453001 -4.120182,4.064545 -0.694585,0.634623 -1.667132,1.448354 -2.239034,2.243545 -0.09333,0.129776 -0.129313,0.492306 0.111275,0.554871 0.792707,0.206144 2.140388,-0.307771 2.369857,0.909749 0.05689,0.301845 -0.117097,0.608797 -0.243602,0.888696 -0.480812,1.063817 -1.622905,1.866399 -1.905209,2.930743 -0.151177,0.569971 0.06008,1.002134 0.04511,1.554843 -0.01105,0.407981 -0.0043,0.819346 -0.06767,1.222521 -0.06305,0.400898 -0.215479,0.782689 -0.309765,1.17741 -0.374632,1.568363 -0.773687,3.208365 -0.951853,4.817907 -0.05387,0.48663 -0.08343,0.97655 -0.08872,1.466124 -0.0023,0.208669 -0.06066,0.456813 0.06616,0.622538 0.09029,0.117994 0.295093,0.03889 0.443596,0.04361 0.862812,0.02741 3.038121,-0.311493 3.366821,0.777421 0.67522,2.236866 -0.300619,4.268842 -1.063128,6.329142 -0.75199,2.03188 -1.857609,3.976662 -3.123218,5.730663 -0.4234,0.586787 -0.891827,1.140516 -1.308234,1.732286 -0.191479,0.27211 -0.972859,1.26956 -0.642086,1.79844 0.106427,0.17017 0.397854,0.0603 0.598479,0.0662 0.899849,0.0261 2.792916,-0.29887 3.434488,0.73381 0.584635,0.94104 0.342815,1.3424 0.06616,2.28716 -0.103469,0.35334 -0.270853,0.70527 -0.111275,1.08869 0.325371,0.78177 1.456631,1.14049 2.171367,1.39845 0.114691,0.0414 0.452622,0.16162 0.354877,0.0887 -0.278118,-0.20741 -1.181447,-1.0786 -1.463116,-1.1323 -0.14599,-0.0278 -0.390444,0.0516 -0.398485,0.2 -0.01937,0.35739 0.123298,0.73049 0.332321,1.02102 0.624147,0.86755 1.314571,1.70494 2.127759,2.39843 2.00818,1.71258 5.169642,2.507 7.64339,3.17584 0.530103,0.14333 1.567253,0.12036 1.506724,0.66615 -0.01977,0.17827 -0.119117,0.36494 -0.266158,0.46766 -0.837519,0.58504 -1.707146,0.51705 -2.327753,-0.31127 -0.388135,-0.51805 0.345283,-0.63352 0.687198,-0.62254 0.446341,0.0143 0.889052,0.13472 1.308234,0.28871 1.728355,0.63493 4.412007,2.45788 4.939708,4.30815 0.858622,3.01057 -0.476059,4.21787 -2.348805,6.28553 -0.146122,0.16133 -1.292543,1.20916 -1.30673,1.46613 -0.04379,0.79314 1.5416,1.11688 1.772882,1.22101 0.62776,0.28266 1.746989,0.80546 2.282641,1.26613 0.768645,0.66105 1.154948,1.03064 1.350338,1.93228 0.06902,0.3185 0.09367,0.67384 -0.177439,0.91125 -0.171865,0.1505 -0.523531,0.0999 -0.353373,0.2436 1.622502,1.37044 4.698652,2.41845 5.383304,4.55326 0.3779,1.17832 -1.280072,2.14653 -2.060091,2.64203 -0.25721,0.16338 -0.537389,0.28797 -0.798474,0.4451 -0.07191,0.0433 -0.228671,0.0766 -0.19849,0.15488 0.181524,0.47098 1.135611,0.71088 1.395449,0.88869 1.300714,0.89012 1.94091,1.37118 2.636014,2.7097 0.22541,0.43406 0.437111,0.89223 0.50976,1.3759 0.07817,0.52043 0.176715,1.11054 -0.06616,1.5774 -0.625242,1.20184 -2.031363,-0.0461 -2.681127,-0.26616 -0.217492,-0.0736 -0.5596,-0.25807 -0.685694,-0.0662 -0.203131,0.30915 -0.05212,0.74352 0,1.10974 0.44057,3.09559 0.711632,3.84039 1.50522,6.70658 0.678027,2.44881 1.351167,4.57423 1.839045,7.01784 0.174938,0.87621 0.313531,1.75955 0.443596,2.64353 0.03997,0.27164 0.198958,0.58072 0.06616,0.82103 -0.347181,0.62829 -1.674758,-1.03481 -1.81649,-1.22101 -0.02413,-0.0317 -0.06139,-0.14693 -0.04361,-0.11128 0.779869,1.56304 1.740375,3.01928 2.724734,4.46453 0.381354,0.55992 0.767903,1.11808 1.195454,1.64357 0.362058,0.44499 1.662786,2.07717 2.503688,2.5097 0.264539,0.13607 0.569615,0.18287 0.864637,0.22104 1.281945,0.16588 -0.236195,-0.10855 0.42104,-0.2436 0.05104,-0.0105 0.01188,0.1036 0.02105,0.15489 0.04247,0.23747 0.08525,0.47495 0.133831,0.71125 0.158442,0.77073 0.318876,1.54108 0.487204,2.30971 0.05786,0.26421 0.85299,3.71616 0.908245,4.01944 0.267493,1.46818 0.410525,2.63282 0.487204,4.0871 0.0144,0.27308 0.07826,1.12108 -0.198491,1.39845 -0.130452,0.13075 -1.27429,0.092 -1.395448,0.13383 -1.872012,0.6466 -2.141808,3.01291 -2.414969,4.64047 -0.125325,0.74672 -0.133807,1.50928 -0.156386,2.2661 -0.04393,1.47249 0,2.94628 0,4.41942 0,0.48871 0.01077,0.97754 0,1.46613 -0.0038,0.171 0.06827,0.38188 -0.04361,0.51126 -0.568203,0.65711 -1.107999,-1.94602 -1.285678,-0.97741 -0.0923,0.50319 -0.05743,1.02156 -0.08722,1.53228 -0.08675,1.48718 -0.126939,1.93649 -0.177439,3.53073 -0.0077,0.24398 0.06257,0.49636 0,0.73231 -0.128488,0.48451 -0.449759,0.41622 -0.775917,0.17744 -1.523006,-1.11501 -2.623793,-2.71115 -3.987856,-3.99688 -1.082541,-1.02038 -2.102014,-1.82109 -3.545763,-2.35482 -1.947026,-0.71979 -4.044474,-0.42832 -6.047947,-0.82103 -1.77914,-0.34873 -1.950131,-1.01081 -2.503688,-2.68714 -0.38343,-1.16114 -0.544415,-2.34073 -0.819525,-3.53073 -0.05917,-0.25592 -0.103736,-0.52135 -0.221047,-0.75637 -0.421047,-0.84352 0.0442,1.2818 -0.664642,0.11128 -0.152937,-0.25255 -0.228556,-0.54462 -0.332322,-0.82103 -0.24364,-0.64901 -0.47132,-1.30389 -0.709754,-1.95483 -0.1385,-0.37812 -0.215012,-0.78632 -0.42104,-1.1323 -0.120481,-0.20232 -0.349332,-0.6162 -0.530812,-0.46615 -0.321092,0.26549 -0.279105,0.78878 -0.354877,1.19846 -0.182146,0.98482 -0.07549,1.98509 -0.266158,2.99841 -0.0027,0.0143 0.0029,-0.0293 0,-0.0436 -0.06387,-0.31886 -0.101293,-0.645 -0.199994,-0.95486 -0.182781,-0.5738 -0.424624,-1.1271 -0.642087,-1.68867 -0.358681,-0.92626 -1.08465,-3.36678 -2.037536,-3.68561 -0.444216,-0.14863 -1.224498,0.46424 -1.485671,0.55487 -0.289678,0.10053 -0.600233,0.16332 -0.906741,0.15488 -0.823981,-0.0227 -1.621525,-0.80672 -2.105203,-1.28718 -0.418087,-0.4153 -0.769137,-0.89545 -1.108239,-1.3774 -1.372554,-1.95076 -2.378228,-3.94656 -4.054019,-5.68555 -0.446757,-0.46361 -0.962054,-0.9732 -1.595443,-1.08869 -3.355763,-0.61191 -4.024734,3.04139 -4.542727,5.37428 -0.259379,1.16816 -0.198491,2.82602 -0.198491,4.01943 v 0.4451 c 0,-0.442 0.01009,-1.20645 -0.06616,-1.55484 -0.453546,-2.07219 -1.418507,-4.42816 -2.814956,-6.06298 -0.465541,-0.54501 -0.832852,-0.70638 -1.439057,-0.66615 -0.172096,0.0114 -0.370595,-0.0132 -0.50976,0.0887 -0.116301,0.0851 -0.746623,1.36559 -0.753362,1.3774 -0.282649,0.4956 -0.582704,0.98119 -0.885689,1.46462 -0.05915,0.0944 -0.104559,0.21025 -0.199994,0.26766 -0.388619,0.23381 -0.725494,-0.13018 -1.01952,-0.33382 -0.194345,-0.1346 -0.337522,-0.34716 -0.553367,-0.4436 -1.099829,-0.49136 -1.172052,-0.15185 -1.72777,1.04358 -0.251617,0.54127 -0.397011,1.12837 -0.532316,1.70973 -0.345665,1.48519 -0.538353,2.88905 -0.753362,4.37581 -0.04493,0.31065 -0.07766,0.62322 -0.132327,0.93231 -0.02663,0.15059 0.03422,0.39798 -0.111275,0.4451 -0.766206,0.24813 -1.228109,-1.86683 -1.617999,-1.06764 -1.053318,2.15906 -1.646116,5.74942 -2.214974,7.99676 -0.167836,0.66306 -0.375563,1.31543 -0.553367,1.97588 -0.164778,0.61207 -0.209122,1.26415 -0.466152,1.84356 -0.0059,0.0133 -0.02907,0 -0.04361,0 v -0.2451 c 0,0.62955 -0.06011,1.26198 0,1.88866 0.07214,0.75206 0.148438,1.50925 0.332321,2.24204 0.317783,1.2664 1.37118,2.87089 2.214974,3.842 0.250567,0.28837 0.547288,0.53444 0.842081,0.77742 0.256761,0.21163 0.523,0.2185 0.664643,0.55638 0.04873,0.11623 0.02018,0.25142 0.02256,0.37743 0.0052,0.27363 0,0.54735 0,0.82103 v 2.08716 c 0,1.04408 -0.0046,2.08817 0,3.13224 0.0029,0.6737 -0.0367,1.3499 0.02256,2.02099 0.04329,0.49036 0.102042,2.01361 0.685694,2.59842 0.561849,0.56297 1.381823,-0.55645 1.640555,-0.37743 0.392761,0.27175 0.548481,0.71999 0.819525,1.08719 0.823222,1.11527 1.132308,1.54854 2.569851,1.35485 0.210761,-0.0284 0.427833,-0.0941 0.598479,-0.22105 0.297807,-0.22148 0.555921,-0.49997 0.774414,-0.79998 0.529896,-0.72758 0.76071,-1.63691 1.240566,-2.39842 0.103397,-0.16409 0.239536,-0.4642 0.422545,-0.39999 0.267223,0.0937 0.374006,0.44296 0.464648,0.71125 0.33041,0.978 0.374256,3.03775 1.151847,3.88561 0.204457,0.22293 1.055063,0.15638 1.240566,0.15638 1.037395,0 1.777737,0.0618 2.813453,-0.22255 0.471076,-0.12932 2.225236,-1.12194 2.503688,-1.24357 0.201758,-0.0881 0.455911,-0.27241 0.642086,-0.15488 0.602119,0.3801 0.459217,2.61992 0.466153,2.68714 0.107999,1.04676 0.250289,1.91327 1.174402,2.62098 0.281524,0.2156 0.685984,0.21847 1.040572,0.22104 2.238121,0.0162 3.078486,-0.76269 4.941212,-1.821 0.415172,-0.23588 1.281584,-1.07035 1.772881,-0.31127 0.653063,1.00902 0.936533,2.37203 1.395449,3.46457 0.242304,0.57685 0.411303,1.21451 0.819525,1.68867 0.684074,0.79456 1.464657,1.55362 2.392413,2.04205 0.451118,0.23749 1.023449,0.0862 1.529279,0.0225 1.638175,-0.20603 2.362942,-0.77496 3.832973,-1.66461 0.585345,-0.35425 1.47245,-1.09173 2.148811,-1.3323 0.891229,-0.31698 1.117915,0.36512 1.861601,0.62104 0.654905,0.22537 2.772162,-0.0522 3.411932,-0.33232 0.576014,-0.25218 1.105656,-0.60083 1.639051,-0.93381 0.03623,-0.0226 1.91314,-1.54283 2.592407,-1.42101 0.929424,0.16667 1.061344,2.48784 1.085683,2.59842 0.35182,1.59846 0.515877,3.8467 2.724734,3.73072 1.35734,-0.0713 2.816375,-0.82996 3.944248,-1.39846 2.176415,-1.09701 4.108564,-2.64973 6.268993,-3.77583 1.160012,-0.60464 1.884812,-0.0985 3.036004,-0.11127 0.343718,-0.004 0.687672,-0.0652 1.019519,-0.15489 0.712328,-0.1924 1.402466,-0.45913 2.103699,-0.6887 0.731308,-0.20751 1.458694,-0.42937 2.193923,-0.62254 1.985037,-0.52151 1.370585,-0.16649 3.744251,-1.08718 0.48991,-0.19003 0.96657,-0.41978 1.41801,-0.6887 0.18788,-0.11193 1.78188,-1.31414 2.32625,-1.53229 0.36436,-0.14602 1.05441,0.16637 1.28567,0.2436 0.26801,0.0895 0.52204,0.22354 0.79697,0.28871 1.60873,0.38133 3.30532,0.57202 4.80739,-0.35487 0.35575,-0.21953 2.49154,-2.01416 1.8616,-2.97586 -0.49416,-0.75441 -2.04229,-1.40011 -2.76985,-1.90972 -0.13157,-0.0922 -0.59864,-0.36045 -0.19999,-0.53382 1.0452,-0.45454 1.49935,-0.38849 2.63752,-0.66614 1.37933,-0.33649 3.12321,-0.73731 4.40889,-1.46613 0.34043,-0.19297 2.45197,-1.25454 2.41497,-2.3097 -0.0605,-1.72564 -1.85548,-2.81043 -2.81345,-3.97433 -1.26908,-1.54187 -1.66696,-2.69209 -1.44056,-4.70964 0.21231,-1.89202 1.93057,-3.26894 3.21194,-4.48558 2.11945,-2.0124 4.1183,-3.87696 5.18481,-6.70658 0.24037,-0.63773 0.38848,-1.34402 0.30977,-2.02099 -0.41562,-3.57452 -1.98786,-4.54361 -5.22843,-5.44195 -0.76416,-0.21184 -1.57321,-0.21229 -2.3488,-0.37743 -0.30607,-0.0652 -0.67121,-0.0834 -0.88569,-0.31127 -0.50139,-0.53269 -0.16204,-1.2156 0.19999,-1.64206 0.44317,-0.52203 0.95441,-0.98351 1.46162,-1.44357 0.69558,-0.63093 4.88479,-3.69317 3.9653,-5.04196 -0.56038,-0.82201 -3.02457,-1.16087 -3.34427,-1.24357 -2.4046,-0.62203 -5.5942,-0.92455 -6.73514,-3.53073 -0.20506,-0.4684 -0.10009,-1.02838 -0.0226,-1.53379 0.21885,-1.4266 1.02107,-2.62654 1.72777,-3.842 0.77503,-1.33296 1.83609,-2.47017 1.26312,-4.1307 -0.17318,-0.50189 -1.35258,-1.6132 -1.64055,-1.90972 -1.59247,-1.63976 -2.40717,-2.05752 -2.74579,-4.39687 -0.21095,-1.45736 0.36644,-3.27367 0.77442,-4.66453 0.45915,-1.56532 0.85515,-3.09278 1.10823,-4.70813 0.0634,-0.40446 0.13585,-0.81165 0.13233,-1.22102 -0.007,-0.8496 0.0877,-1.51318 -0.70825,-1.93228 -0.6906,-0.36363 -2.05795,-0.34096 -2.32625,-1.30973 -0.27006,-0.97513 0.15277,-2.07938 0.70825,-2.86458 0.007,-0.0105 0.79546,-0.84609 0.75336,-1.08869 -0.0272,-0.15698 -0.6146,-0.50557 -0.70825,-0.57743 -0.4049,-0.31073 -0.8305,-0.59961 -1.19696,-0.95486 -0.81402,-0.78913 -1.28024,-1.72447 -1.70521,-2.77737 -0.47519,-1.17732 -0.47609,-2.57932 -0.17744,-3.79688 0.2464,-1.00456 1.00194,-2.87733 0.59848,-3.97583 -0.66745,-1.81727 -1.33564,-1.75155 -2.59241,-3.24201 -0.35858,-0.42525 -0.6055,-0.9333 -0.90824,-1.39996"
       id="path389"
       sodipodi:nodetypes="cssssssssssssssssccssssssssssssscsscsssssscsscscsssssccsssssssssssscsssssscssssccscsssssssscsscssssssssscsssssssscssssssssssssssssssssssssssssssscssscssssssssssssssscsscssssssscssssssssssscscsssssssscssscssssccsssssscssssssssssscssssssssssssssssssssssscssssssssssscsssccssscsssssssssccsssssssscssssscsscsssssssssssssscsssssssssscccsssssssssssssssssssssssssscsssssscssccssssssc" />
  </g>
</svg>
